<svg xmlns="http://www.w3.org/2000/svg" xmlns:xlink="http://www.w3.org/1999/xlink" width="90" height="206" viewBox="0 0 90 206"><svg width="30" height="30" viewBox="-5 -5 30 30" id="github" y="0"><title>github</title><path d="M20 10.252C20 4.592 15.52 0 10 0S0 4.592 0 10.252c0 4.525 2.865 8.37 6.836 9.73.508.095.69-.226.69-.492 0-.24-.013-1.055-.013-1.91 0 0-2.786.615-3.372-1.214 0 0-.455-1.188-1.106-1.495 0 0-.912-.64.065-.627 0 0 .99.08 1.535 1.055.873 1.575 2.33 1.12 2.904.854.09-.667.35-1.108.637-1.375-2.226-.253-4.557-1.134-4.557-5.06 0-1.12.39-2.04 1.028-2.75-.104-.266-.442-1.307.092-2.722C5.586 3.978 7.5 5.3 7.5 5.3c.794-.227 1.654-.348 2.5-.348.846 0 1.706.12 2.5.348 0 0 1.914-1.322 2.747-1.055.547 1.415.21 2.456.105 2.723.638.708 1.028 1.63 1.028 2.75 0 3.938-2.344 4.806-4.57 5.06.364.32.677.934.677 1.895v2.817c0 .266.17.587.677.493 3.97-1.36 6.836-5.206 6.836-9.73z" fill="#989898"/></svg>
<svg width="90" height="90" viewBox="-5 -5 90 90" id="logo" y="30"><title>logo</title><g fill="none"><path d="M40 80c22.09 0 40-17.91 40-40S62.09 0 40 0 0 17.91 0 40s17.91 40 40 40z" fill="#858585"/><g transform="translate(21 24)" fill="#393B3F"><path d="M13.57 33.34c-.623 5.11 3.59 7.605 8.932 7.605 6.28 0 11.037-2.847 12.207-9.438l3.314-19.734h-5.42l-.586 2.184c-.663-1.56-2.69-2.69-5.11-2.69-6.473-.08-12.09 4.406-12.09 11.933 0 5.187 3.316 8.385 8.347 8.346 1.872-.04 4.524-.585 6.396-2.847l-.467 2.69c-.585 3.354-3.47 4.446-5.81 4.446-2.107 0-4.174-.624-4.135-2.496H13.57zm13.027-17.12c6.552 0 4.72 10.178-1.833 10.178-2.418 0-4.212-1.404-4.212-4.095 0-3.86 2.886-6.084 6.045-6.084zM6.137 27l1.716-9.79H20.8l.976-5.42H8.828l1.13-6.474h13.807L24.74-.26H4.85L.053 27h6.084z"/></g></g></svg>
<svg width="28" height="28" viewBox="-5 -5 28 28" id="minus" y="120"><title>minus</title><path d="M18 7.286C18 6.576 17.45 6 16.773 6H1.227C.55 6 0 6.576 0 7.286v2.57c0 .71.55 1.287 1.227 1.287h15.546c.677 0 1.227-.576 1.227-1.286v-2.57z" fill="#383B3F"/></svg>
<svg width="28" height="28" viewBox="-5 -5 28 28" id="plus" y="148"><title>plus</title><path d="M18 7.773c0-.678-.55-1.228-1.227-1.228h-5.318V1.227C11.455.55 10.905 0 10.227 0H7.773c-.678 0-1.228.55-1.228 1.227v5.318H1.227C.55 6.545 0 7.095 0 7.773v2.454c0 .678.55 1.228 1.227 1.228h5.318v5.318c0 .677.55 1.227 1.228 1.227h2.454c.678 0 1.228-.55 1.228-1.227v-5.318h5.318c.677 0 1.227-.55 1.227-1.228V7.773z" fill="#383B3F"/></svg>
<svg width="30" height="30" viewBox="-5 -5 30 30" id="twitter" y="176"><title>twitter</title><path d="M19.457 3.9c-.716.313-1.494.538-2.296.625.828-.5 1.457-1.288 1.754-2.225-.766.463-1.63.8-2.53.975C15.653 2.487 14.616 2 13.468 2c-2.21 0-3.99 1.813-3.99 4.037 0 .313.04.625.1.926-3.308-.176-6.26-1.776-8.222-4.226-.346.6-.543 1.288-.543 2.038 0 1.4.704 2.637 1.778 3.362-.655-.024-1.272-.212-1.803-.512v.05c0 1.962 1.37 3.587 3.198 3.962-.334.088-.692.138-1.05.138-.26 0-.506-.025-.753-.063.506 1.6 1.975 2.763 3.73 2.8C4.542 15.6 2.826 16.238.962 16.238c-.333 0-.642-.013-.963-.05C1.765 17.337 3.864 18 6.123 18c7.334 0 11.346-6.15 11.346-11.488 0-.174 0-.35-.013-.524.778-.576 1.457-1.288 2-2.088z" fill="#989898"/></svg>
</svg>