<svg width="20" height="20" viewBox="0 0 20 20" xmlns="http://www.w3.org/2000/svg"><title>github</title><path d="M20 10.252C20 4.592 15.52 0 10 0S0 4.592 0 10.252c0 4.525 2.865 8.37 6.836 9.73.508.095.69-.226.69-.492 0-.24-.013-1.055-.013-1.91 0 0-2.786.615-3.372-1.214 0 0-.455-1.188-1.106-1.495 0 0-.912-.64.065-.627 0 0 .99.08 1.535 1.055.873 1.575 2.33 1.12 2.904.854.09-.667.35-1.108.637-1.375-2.226-.253-4.557-1.134-4.557-5.06 0-1.12.39-2.04 1.028-2.75-.104-.266-.442-1.307.092-2.722C5.586 3.978 7.5 5.3 7.5 5.3c.794-.227 1.654-.348 2.5-.348.846 0 1.706.12 2.5.348 0 0 1.914-1.322 2.747-1.055.547 1.415.21 2.456.105 2.723.638.708 1.028 1.63 1.028 2.75 0 3.938-2.344 4.806-4.57 5.06.364.32.677.934.677 1.895v2.817c0 .266.17.587.677.493 3.97-1.36 6.836-5.206 6.836-9.73z" fill="#989898"/></svg>