<svg width="80" height="80" viewBox="0 0 80 80" xmlns="http://www.w3.org/2000/svg"><title>logo</title><g fill="none"><path d="M40 80c22.09 0 40-17.91 40-40S62.09 0 40 0 0 17.91 0 40s17.91 40 40 40z" fill="#858585"/><g fill="#393B3F"><path d="M34.57 57.34c-.623 5.11 3.59 7.605 8.932 7.605 6.28 0 11.037-2.847 12.207-9.438l3.314-19.734h-5.42l-.586 2.184c-.663-1.56-2.69-2.69-5.11-2.69-6.473-.08-12.09 4.406-12.09 11.933 0 5.187 3.316 8.385 8.347 8.346 1.872-.04 4.524-.585 6.396-2.847l-.467 2.69c-.585 3.354-3.47 4.446-5.81 4.446-2.107 0-4.174-.624-4.135-2.496H34.57zM5.598-7.78c6.552 0 4.72 10.178-1.833 10.178-2.418 0-4.212-1.404-4.212-4.095 0-3.86 2.886-6.084 6.045-6.084zM27.137 51l1.716-9.79H41.8l.976-5.42H29.828l1.13-6.474h13.807l.975-5.577H25.85L21.053 51h6.084z"/></g></g></svg>