<svg width="20" height="20" viewBox="0 0 20 20" xmlns="http://www.w3.org/2000/svg"><title>twitter</title><path d="M19.457 3.9c-.716.313-1.494.538-2.296.625.828-.5 1.457-1.288 1.754-2.225-.766.463-1.63.8-2.53.975C15.653 2.487 14.616 2 13.468 2c-2.21 0-3.99 1.813-3.99 4.037 0 .313.04.625.1.926-3.308-.176-6.26-1.776-8.222-4.226-.346.6-.543 1.288-.543 2.038 0 1.4.704 2.637 1.778 3.362-.655-.024-1.272-.212-1.803-.512v.05c0 1.962 1.37 3.587 3.198 3.962-.334.088-.692.138-1.05.138-.26 0-.506-.025-.753-.063.506 1.6 1.975 2.763 3.73 2.8C4.542 15.6 2.826 16.238.962 16.238c-.333 0-.642-.013-.963-.05C1.765 17.337 3.864 18 6.123 18c7.334 0 11.346-6.15 11.346-11.488 0-.174 0-.35-.013-.524.778-.576 1.457-1.288 2-2.088z" fill="#989898"/></svg>