<?xml version="1.0" encoding="UTF-8" standalone="no"?>
<svg width="20px" height="20px" viewBox="0 0 20 20" version="1.1" xmlns="http://www.w3.org/2000/svg" xmlns:xlink="http://www.w3.org/1999/xlink" xmlns:sketch="http://www.bohemiancoding.com/sketch/ns">
    <!-- Generator: Sketch 3.0 (7574) - http://www.bohemiancoding.com/sketch -->
    <title>github</title>
    <description>Created with Sketch.</description>
    <defs></defs>
    <g id="Page-1" stroke="none" stroke-width="1" fill="none" fill-rule="evenodd" sketch:type="MSPage">
        <g id="github" sketch:type="MSArtboardGroup" fill="#989898">
            <path d="M20,10.2520195 C20,4.5920504 15.5208333,0 10,0 C4.47916667,0 0,4.5920504 0,10.2520195 C0,14.777325 2.86458333,18.6218323 6.8359375,19.9834286 C7.34375,20.0768715 7.52604167,19.7564959 7.52604167,19.4895162 C7.52604167,19.2492345 7.51302083,18.4349465 7.51302083,17.5806116 C7.51302083,17.5806116 4.7265625,18.1946648 4.140625,16.3658541 C4.140625,16.3658541 3.68489583,15.1777945 3.03385417,14.8707679 C3.03385417,14.8707679 2.12239583,14.2300167 3.09895833,14.2433656 C3.09895833,14.2433656 4.08854167,14.3234595 4.63541667,15.2979354 C5.5078125,16.8731154 6.96614583,16.41925 7.5390625,16.1522703 C7.63020833,15.4848211 7.890625,15.0443047 8.17708333,14.777325 C5.95052083,14.5236943 3.61979167,13.6426614 3.61979167,9.71806015 C3.61979167,8.59674552 4.01041667,7.67566564 4.6484375,6.96816951 C4.54427083,6.70118983 4.20572917,5.6599691 4.73958333,4.24497683 C5.5859375,3.97799715 7.5,5.29954654 7.5,5.29954654 C8.29427083,5.07261382 9.15364583,4.95247296 10,4.95247296 C10.8463542,4.95247296 11.7057292,5.07261382 12.5,5.29954654 C12.5,5.29954654 14.4140625,3.97799715 15.2473958,4.24497683 C15.7942708,5.6599691 15.4557292,6.70118983 15.3515625,6.96816951 C15.9895833,7.67566564 16.3802083,8.59674552 16.3802083,9.71806015 C16.3802083,13.6560104 14.0364583,14.5236943 11.8098958,14.777325 C12.1744792,15.0977006 12.4869792,15.7117538 12.4869792,16.6728807 L12.4869792,19.4895162 C12.4869792,19.7564959 12.65625,20.0768715 13.1640625,19.9834286 C17.1354167,18.6218323 20,14.777325 20,10.2520195 L20,10.2520195 Z" id="" sketch:type="MSShapeGroup"></path>
        </g>
    </g>
</svg>