<?xml version="1.0" encoding="UTF-8" standalone="no"?>
<svg width="80px" height="80px" viewBox="0 0 80 80" version="1.1" xmlns="http://www.w3.org/2000/svg" xmlns:xlink="http://www.w3.org/1999/xlink" xmlns:sketch="http://www.bohemiancoding.com/sketch/ns">
    <!-- Generator: Sketch 3.0 (7574) - http://www.bohemiancoding.com/sketch -->
    <title>logo</title>
    <description>Created with Sketch.</description>
    <defs></defs>
    <g id="Page-1" stroke="none" stroke-width="1" fill="none" fill-rule="evenodd" sketch:type="MSPage">
        <g id="logo" sketch:type="MSArtboardGroup">
            <g id="Group-2" sketch:type="MSLayerGroup">
                <path d="M40,80 C62.0913911,80 80,62.0913911 80,40 C80,17.9086089 62.0913911,0 40,0 C17.9086089,0 0,17.9086089 0,40 C0,62.0913911 17.9086089,80 40,80 Z" id="Oval-1" fill="#858585" sketch:type="MSShapeGroup"></path>
                <g id="Group" transform="translate(21.000000, 24.000000)" fill="#393B3F" sketch:type="MSShapeGroup">
                    <path d="M13.571,33.34 C12.947,38.449 17.159,40.945 22.502,40.945 C28.781,40.945 33.539,38.098 34.709,31.507 L38.024,11.773 L32.603,11.773 L32.018,13.957 C31.355,12.397 29.327,11.266 26.909,11.266 C20.435,11.188 14.819,15.673 14.819,23.2 C14.819,28.387 18.134,31.585 23.165,31.546 C25.037,31.507 27.689,30.961 29.561,28.699 L29.093,31.39 C28.508,34.744 25.622,35.836 23.282,35.836 C21.176,35.836 19.109,35.212 19.148,33.34 L13.571,33.34 Z M26.597,16.219 C33.149,16.219 31.316,26.398 24.764,26.398 C22.346,26.398 20.552,24.994 20.552,22.303 C20.552,18.442 23.438,16.219 26.597,16.219 Z" id="F"></path>
                    <path d="M6.137,27 L7.853,17.211 L20.801,17.211 L21.776,11.79 L8.828,11.79 L9.959,5.316 L23.765,5.316 L24.74,-0.261 L4.85,-0.261 L0.053,27 L6.137,27 Z" id="F"></path>
                </g>
            </g>
        </g>
    </g>
</svg>