<?xml version="1.0" encoding="UTF-8" standalone="no"?>
<svg width="20px" height="20px" viewBox="0 0 20 20" version="1.1" xmlns="http://www.w3.org/2000/svg" xmlns:xlink="http://www.w3.org/1999/xlink" xmlns:sketch="http://www.bohemiancoding.com/sketch/ns">
    <!-- Generator: Sketch 3.0 (7574) - http://www.bohemiancoding.com/sketch -->
    <title>twitter</title>
    <description>Created with Sketch.</description>
    <defs></defs>
    <g id="Page-1" stroke="none" stroke-width="1" fill="none" fill-rule="evenodd" sketch:type="MSPage">
        <g id="twitter" sketch:type="MSArtboardGroup" fill="#989898">
            <path d="M19.4568139,3.9 C18.7407637,4.2125 17.962985,4.4375 17.1605148,4.525 C17.9876763,4.025 18.6173067,3.2375 18.9136034,2.3 C18.1481704,2.7625 17.2839718,3.1 16.3827361,3.275 C15.6543402,2.4875 14.6173018,2 13.4691523,2 C11.259273,2 9.48149309,3.8125 9.48149309,6.0375 C9.48149309,6.35 9.51853017,6.6625 9.58025864,6.9625 C6.27161262,6.7875 3.32099172,5.1875 1.35802635,2.7375 C1.01234692,3.3375 0.814815813,4.025 0.814815813,4.775 C0.814815813,6.175 1.51852038,7.4125 2.59259577,8.1375 C1.93827398,8.1125 1.32098927,7.925 0.790124424,7.625 L0.790124424,7.675 C0.790124424,9.6375 2.16049647,11.2625 3.9876592,11.6375 C3.65432546,11.725 3.29630033,11.775 2.9382752,11.775 C2.67901563,11.775 2.43210174,11.75 2.18518786,11.7125 C2.69136132,13.3125 4.16049892,14.475 5.91358749,14.5125 C4.54321544,15.6 2.82716396,16.2375 0.962964142,16.2375 C0.629630401,16.2375 0.320988047,16.225 0,16.1875 C1.76543426,17.3375 3.86420226,18 6.12346429,18 C13.4568066,18 17.4691572,11.85 17.4691572,6.5125 C17.4691572,6.3375 17.4691572,6.1625 17.4568115,5.9875 C18.2345902,5.4125 18.9136034,4.7 19.4568139,3.9 L19.4568139,3.9 Z" id="-2" sketch:type="MSShapeGroup"></path>
        </g>
    </g>
</svg>